# xmcd CD database file
#
# Track frame offsets:
#	150
#	23278
#	50980
#	65971
#	87523
#	106184
#	127073
#	149474
#
# Disc length: 2280 seconds
#
# Revision: 0
# Processed by: cddbd v1.5.2PL0 Copyright (c) Steve Scherf et al.
# Submitted via: CDex 1.70beta2
#
DISCID=7608e608
DTITLE=Mike Oldfield - Platinum
DYEAR=1979
DGENRE=New Age
TTITLE0=1 - Airborn
TTITLE1=2 - Platinum
TTITLE2=3 - Charleston
TTITLE3=4 - North Star
TTITLE4=5 - Woodhenge
TTITLE5=6 - Sally
TTITLE6=7 - Punk A Diddle
TTITLE7=8 - I Got Rhythm
EXTD=YEAR: 1979
EXTT0=
EXTT1=
EXTT2=
EXTT3=
EXTT4=
EXTT5=
EXTT6=
EXTT7=
PLAYORDER=
